# xmcd CD database file
#
# Track frame offsets:
#	150
#	23188
#	47043
#	82709
#	94684
#	115543
#	126992
#	168441
#	197226
#	217902
#	251003
#	294953
#
# Disc length: 4297 seconds
#
# Revision: 0
# Processed by: cddbd v1.5.1PL0 Copyright (c) Steve Scherf et al.
# Submitted via: CDex 1.51
#
DISCID=9a10c70c
DTITLE=Omni - ＳｗｉｎｇＪｏｕｒｎａｌ　ｐｒｅｓｅｎｔｓ　ザ・ゴールドディスク・アルバム〜モダン・ジャズ編
DYEAR=1900
DGENRE=Jazz
TTITLE0=ワーク・ソング（キャノンボール・アダレイ）
TTITLE1=ファイヴ・スポット・アフター・ダーク（カーティス・フラー）
TTITLE2=処女航海（ハービー・ハンコック）
TTITLE3=ヤードバード組曲（チャーリー・パーカー）
TTITLE4=モックス・ニックス（アート・ファーマー）
TTITLE5=ムーヴ（マイルス・デイヴィス）
TTITLE6=チュニジアの夜（アート・ブレイキー・クインテット）
TTITLE7=リトル・メロネー（ジャッキー・マクリーン）
TTITLE8=ロータス・ブロッサム（ケニー・ドーハム）
TTITLE9=スクラップル・フロム・ジ・アップル（デクスター・ゴードン）
TTITLE10=ジョードゥ（ブラウン＝ローチ・クインテット）
TTITLE11=レフト・アローン（マル・ウォルドロン）
EXTD=
EXTT0=
EXTT1=
EXTT2=
EXTT3=
EXTT4=
EXTT5=
EXTT6=
EXTT7=
EXTT8=
EXTT9=
EXTT10=
EXTT11=
PLAYORDER=
